<svg width="344" height="251" viewBox="0 0 344 251" fill="none" xmlns="http://www.w3.org/2000/svg">
<rect width="344" height="251" fill="white"/>
<path d="M132.541 113.669H124.467V112.518H132.541V113.669ZM128.508 114.282C129.158 114.282 129.731 114.385 130.225 114.592C130.72 114.794 131.106 115.081 131.383 115.454C131.66 115.823 131.799 116.254 131.799 116.748C131.799 117.238 131.66 117.669 131.383 118.042C131.106 118.411 130.72 118.698 130.225 118.905C129.731 119.107 129.158 119.208 128.508 119.208C127.867 119.208 127.294 119.107 126.79 118.905C126.285 118.698 125.894 118.411 125.617 118.042C125.344 117.669 125.208 117.238 125.208 116.748C125.208 116.254 125.344 115.823 125.617 115.454C125.894 115.081 126.285 114.794 126.79 114.592C127.294 114.385 127.867 114.282 128.508 114.282ZM128.508 115.379C128.129 115.379 127.794 115.434 127.501 115.545C127.209 115.656 126.984 115.815 126.828 116.022C126.671 116.229 126.593 116.471 126.593 116.748C126.593 117.021 126.671 117.258 126.828 117.46C126.984 117.662 127.209 117.815 127.501 117.921C127.794 118.027 128.129 118.08 128.508 118.08C128.886 118.08 129.221 118.027 129.514 117.921C129.812 117.815 130.041 117.662 130.203 117.46C130.364 117.258 130.445 117.021 130.445 116.748C130.445 116.471 130.364 116.229 130.203 116.022C130.041 115.815 129.812 115.656 129.514 115.545C129.221 115.434 128.886 115.379 128.508 115.379ZM135.106 119.624H133.676V111.134H135.106V119.624ZM137.081 116.007H134.705V114.819H137.081V116.007ZM135.106 124.694H133.676V121.47H126.147V120.313H135.106V124.694ZM129.226 113.154H127.796V111.073H129.226V113.154ZM141.432 113.737C141.432 114.443 141.309 115.137 141.062 115.818C140.819 116.499 140.459 117.112 139.98 117.656C139.5 118.196 138.928 118.605 138.262 118.882L137.482 117.77C138.073 117.513 138.58 117.165 139.003 116.726C139.427 116.287 139.747 115.81 139.964 115.296C140.186 114.776 140.297 114.256 140.297 113.737V111.981H141.432V113.737ZM141.675 113.737C141.675 114.241 141.78 114.731 141.992 115.205C142.209 115.679 142.522 116.108 142.931 116.491C143.339 116.875 143.826 117.175 144.391 117.392L143.634 118.489C142.979 118.232 142.416 117.863 141.947 117.384C141.483 116.9 141.132 116.342 140.895 115.712C140.663 115.081 140.547 114.423 140.547 113.737V111.981H141.675V113.737ZM149.098 119.495H147.728V111.149H149.098V119.495ZM148.152 115.863H145.7V114.683H148.152V115.863ZM146.154 119.072H144.815V111.399H146.154V119.072ZM144.565 119.76C145.503 119.76 146.318 119.856 147.009 120.048C147.705 120.239 148.24 120.522 148.614 120.895C148.987 121.263 149.173 121.705 149.173 122.219C149.173 122.729 148.987 123.165 148.614 123.529C148.24 123.897 147.705 124.179 147.009 124.376C146.318 124.578 145.503 124.679 144.565 124.679C143.622 124.679 142.802 124.578 142.106 124.376C141.415 124.179 140.885 123.897 140.517 123.529C140.149 123.165 139.964 122.729 139.964 122.219C139.964 121.705 140.149 121.263 140.517 120.895C140.885 120.522 141.415 120.239 142.106 120.048C142.802 119.856 143.622 119.76 144.565 119.76ZM144.565 120.85C143.914 120.85 143.349 120.903 142.87 121.009C142.391 121.11 142.025 121.266 141.773 121.478C141.526 121.685 141.402 121.932 141.402 122.219C141.402 122.507 141.526 122.752 141.773 122.953C142.025 123.155 142.388 123.309 142.863 123.415C143.337 123.521 143.904 123.574 144.565 123.574C145.221 123.574 145.786 123.521 146.26 123.415C146.734 123.309 147.098 123.155 147.35 122.953C147.607 122.752 147.736 122.507 147.736 122.219C147.736 121.932 147.607 121.685 147.35 121.478C147.098 121.266 146.732 121.11 146.253 121.009C145.773 120.903 145.211 120.85 144.565 120.85ZM155.848 121.531H154.41V119.299H155.848V121.531ZM161.833 124.694H160.403V111.134H161.833V124.694ZM151.504 121.009C153.078 120.999 154.519 120.966 155.825 120.91C157.137 120.85 158.38 120.744 159.556 120.593L159.662 121.675C158.33 121.892 156.948 122.035 155.515 122.106C154.087 122.177 152.549 122.212 150.899 122.212L150.687 121.009H151.504ZM159.261 113.911H150.975V112.761H159.261V113.911ZM155.106 114.607C155.762 114.607 156.34 114.713 156.839 114.925C157.344 115.132 157.735 115.424 158.012 115.803C158.295 116.181 158.436 116.625 158.436 117.134C158.436 117.629 158.295 118.065 158.012 118.443C157.735 118.817 157.344 119.109 156.839 119.321C156.34 119.533 155.762 119.639 155.106 119.639C154.466 119.639 153.893 119.536 153.389 119.329C152.889 119.122 152.501 118.829 152.223 118.451C151.951 118.068 151.815 117.629 151.815 117.134C151.815 116.625 151.951 116.181 152.223 115.803C152.501 115.424 152.889 115.132 153.389 114.925C153.893 114.713 154.466 114.607 155.106 114.607ZM155.106 115.704C154.738 115.704 154.405 115.765 154.108 115.886C153.81 116.002 153.578 116.168 153.411 116.385C153.245 116.597 153.162 116.847 153.162 117.134C153.162 117.412 153.245 117.656 153.411 117.868C153.578 118.075 153.81 118.237 154.108 118.353C154.405 118.464 154.738 118.519 155.106 118.519C155.49 118.519 155.83 118.466 156.128 118.36C156.426 118.249 156.655 118.088 156.817 117.876C156.978 117.659 157.059 117.412 157.059 117.134C157.059 116.847 156.978 116.597 156.817 116.385C156.655 116.168 156.426 116.002 156.128 115.886C155.83 115.765 155.49 115.704 155.106 115.704ZM155.856 113.389H154.41V111.164H155.856V113.389ZM179.571 119.102H167.161V117.936H179.571V119.102ZM174.199 121.735H172.746V118.686H174.199V121.735ZM178.194 124.429H168.72V123.226H178.194V124.429ZM170.165 123.566H168.72V120.426H170.165V123.566ZM173.359 111.452C174.327 111.452 175.172 111.565 175.894 111.792C176.62 112.019 177.18 112.339 177.574 112.753C177.972 113.167 178.171 113.654 178.171 114.213C178.171 114.768 177.972 115.253 177.574 115.666C177.18 116.075 176.62 116.39 175.894 116.612C175.172 116.834 174.327 116.945 173.359 116.945C172.395 116.945 171.548 116.834 170.816 116.612C170.09 116.39 169.525 116.075 169.121 115.666C168.723 115.253 168.523 114.768 168.523 114.213C168.523 113.654 168.723 113.167 169.121 112.753C169.525 112.339 170.09 112.019 170.816 111.792C171.548 111.565 172.395 111.452 173.359 111.452ZM173.359 112.609C172.703 112.609 172.125 112.675 171.626 112.806C171.126 112.932 170.741 113.116 170.468 113.358C170.201 113.596 170.067 113.881 170.067 114.213C170.067 114.536 170.201 114.816 170.468 115.053C170.741 115.285 171.126 115.467 171.626 115.598C172.125 115.724 172.703 115.787 173.359 115.787C174.02 115.787 174.597 115.724 175.092 115.598C175.586 115.467 175.967 115.285 176.234 115.053C176.507 114.816 176.643 114.536 176.643 114.213C176.643 113.881 176.507 113.596 176.234 113.358C175.967 113.116 175.586 112.932 175.092 112.806C174.597 112.675 174.02 112.609 173.359 112.609ZM190.567 114.198H186.45V113.041H190.567V114.198ZM190.567 117.308H186.45V116.143H190.567V117.308ZM184.013 111.928C184.679 111.918 185.28 112.052 185.814 112.329C186.354 112.607 186.778 112.993 187.086 113.487C187.393 113.981 187.547 114.546 187.547 115.182C187.547 115.803 187.393 116.36 187.086 116.854C186.778 117.349 186.354 117.735 185.814 118.012C185.28 118.285 184.679 118.421 184.013 118.421C183.337 118.421 182.73 118.285 182.19 118.012C181.655 117.735 181.231 117.349 180.919 116.854C180.611 116.36 180.457 115.803 180.457 115.182C180.457 114.546 180.611 113.981 180.919 113.487C181.231 112.993 181.655 112.607 182.19 112.329C182.73 112.052 183.337 111.918 184.013 111.928ZM184.013 113.162C183.59 113.157 183.211 113.24 182.878 113.411C182.551 113.578 182.293 113.815 182.107 114.123C181.92 114.425 181.827 114.778 181.827 115.182C181.827 115.576 181.92 115.926 182.107 116.234C182.293 116.537 182.551 116.774 182.878 116.945C183.211 117.117 183.59 117.202 184.013 117.202C184.427 117.202 184.795 117.117 185.118 116.945C185.446 116.774 185.703 116.537 185.89 116.234C186.077 115.926 186.17 115.576 186.17 115.182C186.17 114.778 186.077 114.425 185.89 114.123C185.703 113.815 185.446 113.578 185.118 113.411C184.795 113.24 184.427 113.157 184.013 113.162ZM191.565 119.14H190.128V111.134H191.565V119.14ZM187.018 119.45C187.961 119.45 188.776 119.553 189.462 119.76C190.153 119.962 190.683 120.26 191.051 120.653C191.424 121.042 191.611 121.511 191.611 122.061C191.611 122.605 191.424 123.075 191.051 123.468C190.683 123.861 190.153 124.162 189.462 124.368C188.776 124.575 187.961 124.679 187.018 124.679C186.079 124.679 185.265 124.575 184.573 124.368C183.887 124.162 183.36 123.861 182.992 123.468C182.624 123.075 182.44 122.605 182.44 122.061C182.44 121.511 182.624 121.042 182.992 120.653C183.36 120.26 183.887 119.962 184.573 119.76C185.265 119.553 186.079 119.45 187.018 119.45ZM187.018 120.555C186.367 120.555 185.802 120.615 185.323 120.736C184.843 120.852 184.478 121.024 184.225 121.251C183.973 121.473 183.847 121.743 183.847 122.061C183.847 122.368 183.973 122.633 184.225 122.855C184.478 123.077 184.843 123.249 185.323 123.37C185.802 123.486 186.367 123.544 187.018 123.544C187.684 123.544 188.256 123.486 188.735 123.37C189.215 123.249 189.578 123.077 189.825 122.855C190.077 122.633 190.203 122.368 190.203 122.061C190.203 121.738 190.077 121.465 189.825 121.243C189.578 121.021 189.215 120.852 188.735 120.736C188.256 120.615 187.684 120.555 187.018 120.555ZM205.739 120.26H193.329V119.109H205.739V120.26ZM200.207 124.694H198.792V119.639H200.207V124.694ZM196.295 113.457H202.742V111.686H204.188V117.581H194.873V111.686H196.295V113.457ZM202.742 116.416V114.607H196.295V116.416H202.742ZM217.741 124.732H216.31V111.134H217.741V124.732ZM216.522 117.316H213.609V116.143H216.522V117.316ZM208.1 120.335C209.422 120.34 210.532 120.315 211.43 120.26C212.328 120.204 213.233 120.101 214.146 119.949L214.297 121.122C213.349 121.269 212.408 121.372 211.475 121.432C210.542 121.488 209.417 121.516 208.1 121.516H207.048V120.335H208.1ZM213.389 113.525H208.494V120.721H207.048V112.344H213.389V113.525ZM212.822 117.301H208.138V116.151H212.822V117.301ZM235.395 122.976H222.985V121.811H235.395V122.976ZM229.833 122.166H228.411V118.565H229.833V122.166ZM229.621 113.025C229.621 113.959 229.367 114.831 228.857 115.644C228.348 116.456 227.667 117.139 226.814 117.694C225.961 118.244 225.036 118.618 224.037 118.814L223.409 117.626C224.277 117.48 225.089 117.177 225.845 116.718C226.607 116.259 227.215 115.704 227.669 115.053C228.128 114.403 228.358 113.727 228.358 113.025V112.019H229.621V113.025ZM229.871 113.025C229.871 113.732 230.101 114.41 230.56 115.061C231.024 115.707 231.637 116.259 232.399 116.718C233.165 117.177 233.983 117.48 234.85 117.626L234.222 118.814C233.218 118.612 232.29 118.239 231.438 117.694C230.585 117.144 229.904 116.466 229.394 115.659C228.89 114.852 228.638 113.974 228.638 113.025V112.019H229.871V113.025ZM248.433 119.412H236.054V118.262H248.433V119.412ZM242.947 118.723H241.517V116.582H242.947V118.723ZM247.011 117.097H237.666V115.961H247.011V117.097ZM246.92 112.655H239.103V116.574H237.666V111.512H246.92V112.655ZM246.572 114.819H238.68V113.744H246.572V114.819ZM242.244 120.297C243.242 120.287 244.087 120.368 244.779 120.54C245.475 120.711 246.007 120.961 246.375 121.289C246.743 121.617 246.928 122.015 246.928 122.484C246.928 122.958 246.743 123.357 246.375 123.68C246.007 124.008 245.475 124.255 244.779 124.421C244.087 124.593 243.242 124.679 242.244 124.679C241.245 124.679 240.392 124.593 239.686 124.421C238.98 124.255 238.445 124.008 238.082 123.68C237.718 123.357 237.537 122.958 237.537 122.484C237.537 122.01 237.721 121.612 238.089 121.289C238.458 120.961 238.992 120.711 239.693 120.54C240.395 120.368 241.245 120.287 242.244 120.297ZM242.244 121.372C241.527 121.372 240.927 121.415 240.443 121.501C239.963 121.581 239.6 121.705 239.353 121.871C239.106 122.033 238.982 122.237 238.982 122.484C238.982 122.731 239.103 122.938 239.345 123.105C239.588 123.266 239.953 123.385 240.443 123.46C240.932 123.541 241.532 123.582 242.244 123.582C242.95 123.582 243.543 123.541 244.022 123.46C244.501 123.385 244.864 123.266 245.112 123.105C245.359 122.938 245.482 122.731 245.482 122.484C245.482 122.237 245.359 122.033 245.112 121.871C244.869 121.705 244.506 121.581 244.022 121.501C243.538 121.415 242.945 121.372 242.244 121.372ZM259.936 124.694H258.49V111.134H259.936V124.694ZM261.903 117.831H259.474V116.635H261.903V117.831ZM253.246 112.587C253.246 113.823 253.153 114.958 252.966 115.992C252.785 117.021 252.47 118.02 252.021 118.988C251.577 119.952 250.959 120.855 250.167 121.697L249.032 120.88C249.748 120.128 250.318 119.331 250.742 118.489C251.165 117.641 251.466 116.756 251.642 115.833C251.819 114.91 251.907 113.883 251.907 112.753V112.587H253.246ZM252.437 113.775H249.516V112.587H252.437V113.775ZM256.985 112.587C256.985 113.898 256.906 115.116 256.75 116.241C256.599 117.361 256.306 118.466 255.872 119.556C255.443 120.64 254.838 121.649 254.056 122.583L252.906 121.781C253.622 120.938 254.182 120.035 254.586 119.072C254.989 118.103 255.267 117.107 255.418 116.083C255.569 115.053 255.645 113.934 255.645 112.723V112.587H256.985ZM256.22 113.775H253.685V112.587H256.22V113.775ZM266.951 115.137C266.951 116.11 266.782 117.064 266.444 117.997C266.106 118.925 265.642 119.753 265.051 120.479C264.461 121.2 263.793 121.743 263.046 122.106L262.199 120.978C262.87 120.656 263.477 120.184 264.022 119.563C264.567 118.938 264.993 118.239 265.301 117.467C265.614 116.69 265.77 115.914 265.77 115.137V113.124H266.951V115.137ZM267.223 115.137C267.223 115.883 267.374 116.625 267.677 117.361C267.985 118.098 268.411 118.754 268.956 119.329C269.506 119.904 270.124 120.34 270.81 120.638L270.015 121.765C269.249 121.422 268.565 120.913 267.965 120.237C267.369 119.561 266.905 118.781 266.572 117.899C266.244 117.016 266.08 116.095 266.08 115.137V113.124H267.223V115.137ZM270.326 113.691H262.675V112.511H270.326V113.691ZM273.473 124.694H272.028V111.134H273.473V124.694Z" fill="#1D37D6"/>
<path d="M70.7002 76.4121C70.7003 82.1654 75.3649 86.8298 81.1182 86.8301H87.459V94.5293H81.1182L80.6504 94.5234C71.0159 94.2793 63.2501 86.5143 63.0059 76.8799L63 76.4121V70.5244H70.7002V76.4121ZM144.529 76.4121L144.523 76.8799C144.279 86.5143 136.514 94.2792 126.88 94.5234L126.412 94.5293H120.071V86.8301H126.412C132.166 86.83 136.83 82.1655 136.83 76.4121V70.5244H144.529V76.4121ZM87.459 20.7002H81.1182C75.365 20.7005 70.7005 25.365 70.7002 31.1182V37.9121H63V31.1182C63.0003 21.2686 70.8606 13.254 80.6504 13.0059L81.1182 13H87.459V20.7002ZM126.88 13.0059C136.67 13.254 144.529 21.2687 144.529 31.1182V37.9121H136.83V31.1182C136.83 25.3649 132.165 20.7003 126.412 20.7002H120.071V13H126.412L126.88 13.0059Z" fill="#1D37D6"/>
<path d="M130.614 85.3538V79.7881L129.686 79.7301C124.526 79.4982 120.584 75.2659 120.584 69.932C120.584 64.4242 124.178 60.3079 129.686 60.1919C134.44 60.076 139.194 60.076 143.89 60.1919C149.34 60.1919 152.993 64.3663 152.993 69.932C152.993 75.2659 149.108 79.4982 143.948 79.7301L143.426 79.7881V85.3538H154.732V94.4562H119.888V85.3538H130.614ZM120.294 58.5106V50.3359H130.73V46.4515H142.151V50.3359H153.051V58.5106H120.294ZM129.512 73.8744L143.774 68.7725V66.4534L129.512 71.5554V73.8744ZM157.921 94.804V48.5386H169.4V94.804H157.921ZM222.242 48.5386V94.804H210.762V48.5386H222.242ZM173.889 94.5721V50.046H185.021V85.4118H193.949V50.046H205.023V94.5721H173.889ZM186.818 71.0916L192.268 69.1203V65.9316L186.818 67.9028V71.0916ZM242.255 96.4274C239.82 96.3694 237.791 95.8476 236.167 94.862C232.863 93.0067 231.297 89.818 231.297 86.3974C231.297 80.7737 234.66 76.5414 242.313 76.4834C249.966 76.3674 257.619 76.3674 265.214 76.4834C272.809 76.4834 276.229 80.7737 276.229 86.3974C276.229 88.0787 275.823 89.7021 275.07 91.2095C273.446 94.2242 270.142 96.2534 265.33 96.4274C257.619 96.6013 249.908 96.6013 242.255 96.4274ZM227.355 62.2791V60.3659C227.355 52.8869 233.385 48.4227 242.429 48.4227C251.357 48.4227 257.445 53.0608 257.445 60.3659V62.2791C257.445 69.5842 251.357 74.2223 242.429 74.2223C233.385 74.2223 227.355 69.7581 227.355 62.2791ZM235.414 65.062L249.676 59.96V57.641L235.414 62.7429V65.062ZM242.893 89.3542L264.518 85.006V83.0348L242.893 87.383V89.3542ZM259.358 70.6857V62.9168H264.75V59.4962H259.358V51.7273H264.75V48.5386H276.171V73.9324H264.75V70.6857H259.358Z" fill="#1D37D6"/>
<path d="M181.671 71.2037L197.977 65.3154" stroke="#1D37D6" stroke-width="3.62354"/>
<rect x="240.554" y="80.9419" width="24.9118" height="9.5118" rx="4.7559" fill="#1D37D6"/>
<rect x="240.554" y="85.0183" width="24.9118" height="2.26471" rx="1.13236" fill="white"/>
<path d="M15.6875 215.5C18.0703 215.48 19.7891 217.18 19.8086 219.621C19.7891 222.043 18.0703 223.742 15.6875 223.742C13.3047 223.742 11.6055 222.043 11.6055 219.621C11.6055 217.18 13.3047 215.48 15.6875 215.5ZM15.6875 217.512C14.5938 217.492 13.832 218.254 13.832 219.621C13.832 220.93 14.5938 221.691 15.6875 221.691C16.7617 221.691 17.5234 220.93 17.543 219.621C17.5234 218.254 16.7617 217.492 15.6875 217.512ZM26.8008 214.543V224.191H24.4375V220.266H22.9531V224.074H20.6289V214.855H22.9531V218.234H24.4375V214.543H26.8008ZM17.1133 224.914V226.535H24.3398V224.914H26.8008V232.102H14.6523V224.914H17.1133ZM17.1133 230.109H24.3398V228.508H17.1133V230.109ZM36.518 214.777C40.6 214.777 42.9633 215.852 42.9828 217.805C42.9633 219.777 40.6 220.852 36.518 220.852C32.4164 220.852 30.0336 219.777 30.0336 217.805C30.0336 215.852 32.4164 214.777 36.518 214.777ZM36.518 216.594C33.9008 216.594 32.6313 217.023 32.6508 217.805C32.6313 218.684 33.9008 219.016 36.518 219.016C39.1547 219.016 40.4047 218.684 40.4047 217.805C40.4047 217.023 39.1547 216.594 36.518 216.594ZM44.6234 221.691V223.664H28.4125V221.691H44.6234ZM42.6508 224.699V229.23H32.7484V230.305H43.1195V232.18H30.307V227.492H40.1898V226.516H30.2875V224.699H42.6508ZM54.4094 215.773C56.0012 215.773 57.3293 216.652 58.1398 218.176H62.0461V214.523H64.507V232.336H62.0461V225.676H58.3352C57.5344 227.434 56.1281 228.449 54.4094 228.449C51.7141 228.449 49.7805 226.008 49.8 222.102C49.7805 218.234 51.7141 215.773 54.4094 215.773ZM54.4094 218.02C53.0812 218.02 52.1633 219.465 52.1828 222.102C52.1633 224.758 53.0812 226.184 54.4094 226.184C55.757 226.184 56.6359 224.758 56.6359 222.102C56.6359 219.465 55.757 218.02 54.4094 218.02ZM58.843 220.188C58.9504 220.773 59.0187 221.418 59.0187 222.102C59.0187 222.658 58.9699 223.186 58.9016 223.684H62.0461V220.188H58.843ZM80.8258 219.367V221.32H68.4039V215.148H70.8844V219.367H80.8258ZM82.6422 223.234V225.188H66.3727V223.234H82.6422ZM80.943 229.914V231.906H68.2477V226.633H70.7477V229.914H80.943ZM103.698 222.59V224.602H96.8227V225.91C99.9184 226.145 101.745 227.258 101.764 229.094C101.745 231.145 99.4203 232.297 95.5727 232.297C91.6664 232.297 89.3422 231.145 89.3422 229.094C89.3422 227.248 91.1879 226.135 94.3422 225.91V224.602H87.4867V222.59H103.698ZM95.5727 227.746C93.1117 227.766 91.8617 228.195 91.8812 229.094C91.8617 229.953 93.1117 230.422 95.5727 230.422C97.975 230.422 99.2445 229.953 99.2641 229.094C99.2445 228.195 97.975 227.766 95.5727 227.746ZM102.233 215.285V217.238H97.4086C97.8285 218.488 99.6352 219.689 103.014 219.973L102.135 221.926C98.7855 221.604 96.5199 220.334 95.5727 218.605C94.6352 220.334 92.4086 221.604 89.0297 221.926L88.2094 219.973C91.5004 219.689 93.3168 218.479 93.7758 217.238H88.9711V215.285H102.233ZM119.255 214.523V224.074H116.755V214.523H119.255ZM109.821 224.855V226.516H116.774V224.855H119.255V232.102H107.36V224.855H109.821ZM109.821 230.09H116.774V228.449H109.821V230.09ZM109.509 215.266C112.282 215.246 114.372 216.984 114.372 219.484C114.372 221.906 112.282 223.645 109.509 223.645C106.735 223.645 104.645 221.906 104.645 219.484C104.645 216.984 106.735 215.246 109.509 215.266ZM109.509 217.336C108.083 217.336 107.067 218.137 107.087 219.484C107.067 220.812 108.083 221.594 109.509 221.594C110.895 221.594 111.911 220.812 111.911 219.484C111.911 218.137 110.895 217.336 109.509 217.336ZM136.198 214.523V232.297H133.718V214.523H136.198ZM124.675 216.223V225.773C127.077 225.744 129.655 225.52 132.273 225.012L132.585 227.062C129.46 227.707 126.53 227.922 123.777 227.902H122.214V216.223H124.675ZM152.166 214.523V221.125H154.783V223.156H152.166V232.336H149.666V214.523H152.166ZM147.185 216.164V218.176H141.326V225.969C143.904 225.939 146.033 225.822 148.396 225.402L148.67 227.492C145.916 227.961 143.494 228.039 140.349 228.02H138.845V216.164H147.185ZM159.07 216.359L158.816 226.262H156.316L156.062 216.359H159.07ZM157.586 230.676C156.668 230.676 155.926 229.934 155.945 229.035C155.926 228.137 156.668 227.414 157.586 227.414C158.445 227.414 159.207 228.137 159.207 229.035C159.207 229.934 158.445 230.676 157.586 230.676ZM175.028 215.559V217.551H171.493C171.522 219.592 172.782 221.643 175.653 222.512L174.403 224.504C172.43 223.879 171.054 222.629 170.262 221.066C169.462 222.824 168.036 224.221 165.946 224.895L164.657 222.902C167.606 221.975 168.925 219.768 168.973 217.551H165.341V215.559H175.028ZM179.071 214.523V218.547H181.473V220.578H179.071V224.836H176.571V214.523H179.071ZM179.071 225.539V232.102H167.45V225.539H179.071ZM169.911 227.492V230.109H176.61V227.492H169.911ZM188.769 218.547C188.769 221.809 190.253 225.09 193.261 226.359L191.796 228.352C189.765 227.434 188.359 225.666 187.558 223.469C186.747 225.861 185.292 227.795 183.124 228.781L181.62 226.711C184.726 225.402 186.23 222.004 186.249 218.547V215.891H188.769V218.547ZM196.738 214.523V232.336H194.218V214.523H196.738ZM207.802 215.988V224.523H199.267V215.988H207.802ZM201.728 217.98V222.57H205.341V217.98H201.728ZM212.841 214.523V219.641H215.244V221.691H212.841V227.492H210.341V214.523H212.841ZM213.486 229.992V231.984H201.318V226.223H203.798V229.992H213.486ZM234.776 214.523V232.297H232.256V214.523H234.776ZM229.444 216.379C229.444 221.77 227.549 226.242 221.202 229.25L219.893 227.258C224.483 225.09 226.504 222.277 226.905 218.332H220.85V216.379H229.444ZM250.743 214.523V221.125H253.36V223.156H250.743V232.336H248.243V214.523H250.743ZM245.762 216.164V218.176H239.903V225.969C242.481 225.939 244.61 225.822 246.973 225.402L247.247 227.492C244.493 227.961 242.071 228.039 238.927 228.02H237.423V216.164H245.762ZM268.585 214.523V232.336H266.105V225.168H263.058V223.117H266.105V220.324H263.116V218.293H266.105V214.523H268.585ZM262.179 216.008V222.844H256.71V226.301C258.907 226.291 260.861 226.184 263.097 225.852L263.292 227.883C260.636 228.312 258.37 228.352 255.636 228.352H254.23V220.91H259.738V217.98H254.191V216.008H262.179ZM286.701 224.328V226.32H279.787V232.297H277.326V226.32H270.49V224.328H286.701ZM285.255 215.461V217.414H280.08C280.324 219.152 282.287 220.9 285.939 221.34L285.041 223.293C281.916 222.873 279.679 221.535 278.615 219.699C277.521 221.535 275.304 222.873 272.209 223.293L271.291 221.34C274.884 220.9 276.867 219.152 277.15 217.414H271.955V215.461H285.255ZM293.078 218.996C293.078 221.867 293.879 224.836 296.301 226.398L294.953 228.332C293.42 227.404 292.443 225.881 291.887 224.055C291.242 226.066 290.178 227.746 288.566 228.723L287.043 226.887C289.68 225.246 290.656 222.121 290.656 219.113V216.047H293.078V218.996ZM302.785 214.523V232.297H300.402V214.523H302.785ZM299.055 214.777V231.477H296.73V222.551H294.426V220.52H296.73V214.777H299.055ZM320.53 228.176V230.227H304.26V228.176H307.893V223.82C306.516 223 305.686 221.74 305.686 220.168C305.686 217.297 308.498 215.383 312.366 215.383C316.213 215.383 319.045 217.297 319.065 220.168C319.055 221.701 318.245 222.951 316.916 223.781V228.176H320.53ZM312.366 217.355C309.827 217.355 308.147 218.371 308.147 220.168C308.147 221.906 309.827 222.98 312.366 222.98C314.885 222.98 316.584 221.906 316.604 220.168C316.584 218.371 314.885 217.355 312.366 217.355ZM310.354 228.176H314.397V224.719C313.762 224.846 313.079 224.914 312.366 224.914C311.653 224.914 310.979 224.855 310.354 224.719V228.176ZM323.45 230.676C322.532 230.676 321.79 229.934 321.809 229.035C321.79 228.137 322.532 227.414 323.45 227.414C324.309 227.414 325.071 228.137 325.071 229.035C325.071 229.934 324.309 230.676 323.45 230.676ZM328.695 230.676C327.777 230.676 327.034 229.934 327.054 229.035C327.034 228.137 327.777 227.414 328.695 227.414C329.554 227.414 330.316 228.137 330.316 229.035C330.316 229.934 329.554 230.676 328.695 230.676Z" fill="#979797"/>
</svg>
