<svg width="1025" height="533" viewBox="0 0 1025 533" fill="none" xmlns="http://www.w3.org/2000/svg">
<path d="M326.811 470.604H288.867V465.199H326.811V470.604ZM307.857 473.485C310.915 473.485 313.606 473.971 315.929 474.943C318.253 475.891 320.066 477.242 321.37 478.997C322.674 480.728 323.326 482.755 323.326 485.078C323.326 487.378 322.674 489.405 321.37 491.159C320.066 492.89 318.253 494.241 315.929 495.213C313.606 496.161 310.915 496.636 307.857 496.636C304.846 496.636 302.155 496.161 299.784 495.213C297.413 494.241 295.576 492.89 294.272 491.159C292.992 489.405 292.352 487.378 292.352 485.078C292.352 482.755 292.992 480.728 294.272 478.997C295.576 477.242 297.413 475.891 299.784 474.943C302.155 473.971 304.846 473.485 307.857 473.485ZM307.857 478.641C306.079 478.641 304.502 478.902 303.127 479.424C301.752 479.945 300.697 480.692 299.962 481.664C299.227 482.636 298.86 483.774 298.86 485.078C298.86 486.358 299.227 487.472 299.962 488.421C300.697 489.369 301.752 490.092 303.127 490.59C304.502 491.088 306.079 491.337 307.857 491.337C309.635 491.337 311.211 491.088 312.587 490.59C313.985 490.092 315.064 489.369 315.823 488.421C316.581 487.472 316.961 486.358 316.961 485.078C316.961 483.774 316.581 482.636 315.823 481.664C315.064 480.692 313.985 479.945 312.587 479.424C311.211 478.902 309.635 478.641 307.857 478.641ZM338.867 498.592H332.146V458.691H338.867V498.592ZM348.149 481.593H336.982V476.01H348.149V481.593ZM338.867 522.418H332.146V507.269H296.761V501.828H338.867V522.418ZM311.235 468.186H304.514V458.406H311.235V468.186ZM368.598 470.924C368.598 474.243 368.018 477.503 366.856 480.704C365.718 483.904 364.023 486.785 361.77 489.345C359.518 491.882 356.827 493.803 353.698 495.106L350.035 489.879C352.809 488.67 355.191 487.034 357.183 484.971C359.174 482.909 360.68 480.668 361.699 478.25C362.742 475.808 363.264 473.366 363.264 470.924V462.674H368.598V470.924ZM369.736 470.924C369.736 473.295 370.234 475.595 371.23 477.823C372.249 480.052 373.719 482.067 375.64 483.869C377.56 485.671 379.848 487.081 382.503 488.101L378.947 493.257C375.865 492.048 373.221 490.317 371.017 488.065C368.835 485.789 367.188 483.169 366.073 480.206C364.983 477.242 364.438 474.149 364.438 470.924V462.674H369.736V470.924ZM404.623 497.987H398.186V458.762H404.623V497.987ZM400.178 480.917H388.655V475.369H400.178V480.917ZM390.789 495.996H384.495V459.935H390.789V495.996ZM383.321 499.232C387.731 499.232 391.56 499.682 394.808 500.583C398.079 501.484 400.592 502.812 402.347 504.566C404.101 506.297 404.978 508.371 404.978 510.789C404.978 513.184 404.101 515.235 402.347 516.942C400.592 518.672 398.079 520 394.808 520.925C391.56 521.873 387.731 522.347 383.321 522.347C378.888 522.347 375.035 521.873 371.763 520.925C368.515 520 366.026 518.672 364.295 516.942C362.565 515.235 361.699 513.184 361.699 510.789C361.699 508.371 362.565 506.297 364.295 504.566C366.026 502.812 368.515 501.484 371.763 500.583C375.035 499.682 378.888 499.232 383.321 499.232ZM383.321 504.353C380.263 504.353 377.607 504.602 375.355 505.099C373.103 505.574 371.384 506.309 370.199 507.304C369.037 508.276 368.456 509.438 368.456 510.789C368.456 512.141 369.037 513.291 370.199 514.239C371.384 515.187 373.091 515.91 375.32 516.408C377.548 516.906 380.215 517.155 383.321 517.155C386.403 517.155 389.058 516.906 391.287 516.408C393.516 515.91 395.223 515.187 396.408 514.239C397.617 513.291 398.222 512.141 398.222 510.789C398.222 509.438 397.617 508.276 396.408 507.304C395.223 506.309 393.504 505.574 391.251 505.099C388.999 504.602 386.356 504.353 383.321 504.353ZM436.346 507.553H429.589V497.062H436.346V507.553ZM464.475 522.418H457.754V458.691H464.475V522.418ZM415.933 505.099C423.33 505.052 430.099 504.898 436.239 504.637C442.403 504.353 448.247 503.855 453.771 503.144L454.269 508.229C448.01 509.248 441.514 509.924 434.781 510.256C428.072 510.588 420.841 510.754 413.088 510.754L412.092 505.099H415.933ZM452.384 471.742H413.444V466.337H452.384V471.742ZM432.861 475.014C435.943 475.014 438.657 475.512 441.004 476.507C443.375 477.479 445.213 478.855 446.516 480.633C447.844 482.411 448.508 484.497 448.508 486.892C448.508 489.215 447.844 491.266 446.516 493.044C445.213 494.798 443.375 496.173 441.004 497.169C438.657 498.165 435.943 498.663 432.861 498.663C429.85 498.663 427.159 498.177 424.788 497.205C422.441 496.233 420.615 494.858 419.311 493.079C418.031 491.278 417.391 489.215 417.391 486.892C417.391 484.497 418.031 482.411 419.311 480.633C420.615 478.855 422.441 477.479 424.788 476.507C427.159 475.512 429.85 475.014 432.861 475.014ZM432.861 480.17C431.13 480.17 429.565 480.455 428.166 481.024C426.768 481.569 425.677 482.352 424.895 483.371C424.112 484.367 423.721 485.54 423.721 486.892C423.721 488.196 424.112 489.345 424.895 490.341C425.677 491.313 426.768 492.072 428.166 492.617C429.565 493.139 431.13 493.399 432.861 493.399C434.662 493.399 436.263 493.151 437.662 492.653C439.06 492.131 440.139 491.372 440.898 490.377C441.656 489.357 442.036 488.196 442.036 486.892C442.036 485.54 441.656 484.367 440.898 483.371C440.139 482.352 439.06 481.569 437.662 481.024C436.263 480.455 434.662 480.17 432.861 480.17ZM436.381 469.288H429.589V458.833H436.381V469.288ZM547.836 496.138H489.514V490.661H547.836V496.138ZM522.587 508.513H515.759V494.182H522.587V508.513ZM541.364 521.174H496.84V515.519H541.364V521.174ZM503.632 517.119H496.84V502.361H503.632V517.119ZM518.639 460.184C523.191 460.184 527.162 460.718 530.553 461.785C533.967 462.852 536.598 464.357 538.448 466.301C540.32 468.245 541.257 470.533 541.257 473.165C541.257 475.773 540.32 478.048 538.448 479.993C536.598 481.913 533.967 483.395 530.553 484.438C527.162 485.481 523.191 486.003 518.639 486.003C514.111 486.003 510.128 485.481 506.691 484.438C503.277 483.395 500.621 481.913 498.725 479.993C496.852 478.048 495.915 475.773 495.915 473.165C495.915 470.533 496.852 468.245 498.725 466.301C500.621 464.357 503.277 462.852 506.691 461.785C510.128 460.718 514.111 460.184 518.639 460.184ZM518.639 465.625C515.557 465.625 512.843 465.934 510.496 466.55C508.149 467.143 506.335 468.008 505.055 469.146C503.798 470.26 503.17 471.6 503.17 473.165C503.17 474.682 503.798 475.998 505.055 477.112C506.335 478.203 508.149 479.056 510.496 479.672C512.843 480.265 515.557 480.562 518.639 480.562C521.745 480.562 524.46 480.265 526.783 479.672C529.107 479.056 530.896 478.203 532.153 477.112C533.433 475.998 534.073 474.682 534.073 473.165C534.073 471.6 533.433 470.26 532.153 469.146C530.896 468.008 529.107 467.143 526.783 466.55C524.46 465.934 521.745 465.625 518.639 465.625ZM599.509 473.093H580.163V467.652H599.509V473.093ZM599.509 487.71H580.163V482.233H599.509V487.71ZM568.712 462.425C571.842 462.377 574.663 463.006 577.176 464.31C579.713 465.614 581.704 467.427 583.151 469.751C584.597 472.074 585.32 474.729 585.32 477.717C585.32 480.633 584.597 483.252 583.151 485.576C581.704 487.899 579.713 489.713 577.176 491.017C574.663 492.297 571.842 492.937 568.712 492.937C565.535 492.937 562.679 492.297 560.142 491.017C557.629 489.713 555.637 487.899 554.167 485.576C552.721 483.252 551.998 480.633 551.998 477.717C551.998 474.729 552.721 472.074 554.167 469.751C555.637 467.427 557.629 465.614 560.142 464.31C562.679 463.006 565.535 462.377 568.712 462.425ZM568.712 468.221C566.721 468.198 564.943 468.589 563.378 469.395C561.837 470.177 560.628 471.292 559.751 472.738C558.873 474.16 558.435 475.82 558.435 477.717C558.435 479.566 558.873 481.214 559.751 482.66C560.628 484.082 561.837 485.196 563.378 486.003C564.943 486.809 566.721 487.212 568.712 487.212C570.656 487.212 572.387 486.809 573.904 486.003C575.445 485.196 576.655 484.082 577.532 482.66C578.409 481.214 578.848 479.566 578.848 477.717C578.848 475.82 578.409 474.16 577.532 472.738C576.655 471.292 575.445 470.177 573.904 469.395C572.387 468.589 570.656 468.198 568.712 468.221ZM604.203 496.316H597.447V458.691H604.203V496.316ZM582.831 497.774C587.264 497.774 591.093 498.26 594.317 499.232C597.565 500.18 600.054 501.579 601.785 503.428C603.54 505.254 604.417 507.458 604.417 510.043C604.417 512.603 603.54 514.808 601.785 516.657C600.054 518.506 597.565 519.917 594.317 520.889C591.093 521.861 587.264 522.347 582.831 522.347C578.421 522.347 574.592 521.861 571.344 520.889C568.12 519.917 565.642 518.506 563.911 516.657C562.181 514.808 561.315 512.603 561.315 510.043C561.315 507.458 562.181 505.254 563.911 503.428C565.642 501.579 568.12 500.18 571.344 499.232C574.592 498.26 578.421 497.774 582.831 497.774ZM582.831 502.966C579.772 502.966 577.117 503.25 574.865 503.819C572.612 504.364 570.893 505.171 569.708 506.237C568.523 507.281 567.93 508.549 567.93 510.043C567.93 511.489 568.523 512.733 569.708 513.777C570.893 514.82 572.612 515.626 574.865 516.195C577.117 516.74 579.772 517.013 582.831 517.013C585.96 517.013 588.651 516.74 590.903 516.195C593.155 515.626 594.862 514.82 596.024 513.777C597.209 512.733 597.802 511.489 597.802 510.043C597.802 508.525 597.209 507.245 596.024 506.202C594.862 505.159 593.155 504.364 590.903 503.819C588.651 503.25 585.96 502.966 582.831 502.966ZM670.813 501.579H612.491V496.173H670.813V501.579ZM644.817 522.418H638.167V498.663H644.817V522.418ZM626.431 469.608H656.73V461.287H663.522V488.99H619.745V461.287H626.431V469.608ZM656.73 483.513V475.014H626.431V483.513H656.73ZM727.216 522.596H720.494V458.691H727.216V522.596ZM721.49 487.745H707.799V482.233H721.49V487.745ZM681.91 501.934C688.121 501.958 693.337 501.84 697.557 501.579C701.777 501.318 706.033 500.832 710.324 500.121L711.035 505.633C706.578 506.32 702.156 506.806 697.77 507.091C693.384 507.352 688.097 507.482 681.91 507.482H676.966V501.934H681.91ZM706.768 469.928H683.759V503.748H676.966V464.381H706.768V469.928ZM704.1 487.674H682.087V482.269H704.1V487.674ZM810.185 514.346H751.863V508.869H810.185V514.346ZM784.047 510.54H777.361V493.613H784.047V510.54ZM783.051 467.581C783.051 471.967 781.854 476.069 779.459 479.886C777.065 483.703 773.864 486.915 769.858 489.523C765.851 492.107 761.5 493.862 756.806 494.786L753.855 489.203C757.932 488.516 761.749 487.093 765.306 484.936C768.886 482.778 771.742 480.17 773.876 477.112C776.034 474.054 777.112 470.877 777.112 467.581V462.852H783.051V467.581ZM784.225 467.581C784.225 470.9 785.303 474.089 787.461 477.148C789.642 480.182 792.523 482.778 796.102 484.936C799.706 487.093 803.547 488.516 807.625 489.203L804.673 494.786C799.955 493.838 795.593 492.084 791.586 489.523C787.579 486.939 784.379 483.75 781.984 479.957C779.613 476.164 778.428 472.038 778.428 467.581V462.852H784.225V467.581ZM871.46 497.596H813.28V492.19H871.46V497.596ZM845.678 494.36H838.956V484.296H845.678V494.36ZM864.774 486.714H820.855V481.379H864.774V486.714ZM864.348 465.839H827.612V484.26H820.855V460.469H864.348V465.839ZM862.712 476.01H825.621V470.96H862.712V476.01ZM842.37 501.757C847.064 501.709 851.036 502.089 854.284 502.895C857.555 503.701 860.057 504.874 861.787 506.415C863.518 507.956 864.383 509.829 864.383 512.034C864.383 514.263 863.518 516.136 861.787 517.653C860.057 519.194 857.555 520.356 854.284 521.138C851.036 521.944 847.064 522.347 842.37 522.347C837.676 522.347 833.669 521.944 830.35 521.138C827.031 520.356 824.518 519.194 822.811 517.653C821.104 516.136 820.251 514.263 820.251 512.034C820.251 509.805 821.116 507.933 822.847 506.415C824.577 504.874 827.09 503.701 830.386 502.895C833.681 502.089 837.676 501.709 842.37 501.757ZM842.37 506.806C839.004 506.806 836.182 507.008 833.906 507.411C831.654 507.79 829.947 508.371 828.786 509.154C827.624 509.912 827.043 510.872 827.043 512.034C827.043 513.196 827.612 514.168 828.75 514.95C829.888 515.709 831.607 516.266 833.906 516.622C836.206 517.001 839.027 517.191 842.37 517.191C845.689 517.191 848.475 517.001 850.727 516.622C852.98 516.266 854.687 515.709 855.848 514.95C857.01 514.168 857.591 513.196 857.591 512.034C857.591 510.872 857.01 509.912 855.848 509.154C854.71 508.371 853.003 507.79 850.727 507.411C848.451 507.008 845.666 506.806 842.37 506.806ZM925.516 522.418H918.724V458.691H925.516V522.418ZM934.762 490.163H923.347V484.545H934.762V490.163ZM894.079 465.519C894.079 471.327 893.64 476.662 892.763 481.522C891.91 486.358 890.428 491.052 888.318 495.604C886.232 500.133 883.327 504.376 879.605 508.336L874.271 504.495C877.637 500.962 880.316 497.216 882.308 493.257C884.299 489.274 885.71 485.114 886.54 480.775C887.37 476.436 887.785 471.612 887.785 466.301V465.519H894.079ZM890.274 471.102H876.547V465.519H890.274V471.102ZM911.647 465.519C911.647 471.683 911.279 477.408 910.544 482.695C909.833 487.958 908.458 493.151 906.419 498.272C904.404 503.369 901.559 508.11 897.884 512.496L892.479 508.727C895.845 504.768 898.477 500.524 900.374 495.996C902.27 491.444 903.574 486.761 904.285 481.948C904.997 477.112 905.352 471.849 905.352 466.159V465.519H911.647ZM908.055 471.102H896.142V465.519H908.055V471.102ZM958.483 477.503C958.483 482.079 957.689 486.56 956.101 490.946C954.512 495.308 952.331 499.196 949.557 502.61C946.784 506 943.642 508.549 940.133 510.256L936.15 504.957C939.304 503.44 942.16 501.223 944.721 498.307C947.281 495.367 949.285 492.084 950.731 488.456C952.201 484.805 952.936 481.154 952.936 477.503V468.044H958.483V477.503ZM959.764 477.503C959.764 481.012 960.475 484.497 961.897 487.958C963.344 491.42 965.347 494.502 967.907 497.205C970.492 499.907 973.396 501.958 976.62 503.357L972.886 508.656C969.283 507.044 966.07 504.649 963.249 501.472C960.451 498.295 958.27 494.632 956.705 490.483C955.164 486.334 954.394 482.008 954.394 477.503V468.044H959.764V477.503ZM974.344 470.711H938.391V465.163H974.344V470.711ZM989.138 522.418H982.346V458.691H989.138V522.418Z" fill="#1D37D6"/>
<path d="M36.1875 298.011C36.1876 325.05 58.1066 346.969 85.1455 346.97H114.945V383.156H85.1455C38.4885 383.156 0.596174 345.629 0.00683594 299.111L0 298.011V270.341H36.1875V298.011ZM383.156 298.011L383.149 299.111C382.565 345.262 345.262 382.565 299.111 383.149L298.011 383.156H268.208V346.97H298.011C325.05 346.97 346.97 325.05 346.97 298.011V270.341H383.156V298.011ZM114.945 36.1875H85.1455C58.1067 36.1878 36.1878 58.1066 36.1875 85.1455V117.078H0V85.1455C0.000250558 38.1212 38.1212 0.000334388 85.1455 0H114.945V36.1875ZM299.111 0.00683594C345.629 0.596167 383.156 38.4884 383.156 85.1455V117.078H346.97V85.1455C346.97 58.1065 325.05 36.1876 298.011 36.1875H268.208V0H298.011L299.111 0.00683594Z" fill="#1D37D6"/>
<path d="M317.755 339.651V313.494L313.395 313.222C289.146 312.132 270.618 292.242 270.618 267.175C270.618 241.29 287.511 221.945 313.395 221.4C335.738 220.855 358.08 220.855 380.15 221.4C405.762 221.4 422.927 241.018 422.927 267.175C422.927 292.242 404.672 312.132 380.422 313.222L377.97 313.494V339.651H431.101V382.428H267.349V339.651H317.755ZM269.256 213.499V175.081H318.3V156.826H371.976V175.081H423.2V213.499H269.256ZM312.578 285.703L379.605 261.725V250.827L312.578 274.804V285.703ZM446.087 384.063V166.635H500.035V384.063H446.087ZM748.37 166.635V384.063H694.421V166.635H748.37ZM521.132 382.973V173.719H573.446V339.923H615.406V173.719H667.447V382.973H521.132ZM581.892 272.624L607.504 263.36V248.375L581.892 257.638V272.624ZM842.424 391.692C830.98 391.42 821.444 388.968 813.815 384.336C798.284 375.617 790.928 360.631 790.928 344.555C790.928 318.126 806.731 298.236 842.696 297.964C878.662 297.419 914.628 297.419 950.321 297.964C986.014 297.964 1002.09 318.126 1002.09 344.555C1002.09 352.457 1000.18 360.086 996.64 367.17C989.011 381.338 973.481 390.875 950.866 391.692C914.628 392.51 878.39 392.51 842.424 391.692ZM772.4 231.209V222.218C772.4 187.07 800.737 166.09 843.241 166.09C885.201 166.09 913.81 187.887 913.81 222.218V231.209C913.81 265.54 885.201 287.337 843.241 287.337C800.737 287.337 772.4 266.357 772.4 231.209ZM810.273 244.288L877.3 220.31V209.412L810.273 233.389V244.288ZM845.421 358.451L947.051 338.016V328.752L845.421 349.187V358.451ZM922.802 270.717V234.206H948.141V218.131H922.802V181.62H948.141V166.635H1001.82V285.975H948.141V270.717H922.802Z" fill="#1D37D6"/>
<path d="M557.704 273.53L634.336 245.857" stroke="#1D37D6" stroke-width="17.0292"/>
<rect x="834.428" y="319.297" width="117.076" height="44.7016" rx="22.3508" fill="#1D37D6"/>
<rect x="834.428" y="338.455" width="117.076" height="10.6432" rx="5.32162" fill="white"/>
</svg>
